<svg width="1280" height="1280" viewBox="0 0 1280 1280" fill="none" xmlns="http://www.w3.org/2000/svg">
<path fill-rule="evenodd" clip-rule="evenodd" d="M244.931 218.86C195.132 227.034 159.362 264.31 151.548 316.182C150.215 325.022 149.758 430.972 150.119 646.916C150.617 943.659 150.868 965.38 153.917 975.792C165.311 1014.67 191.274 1042.85 228.105 1056.3L241.684 1061.26L636.477 1061.74C1074.49 1062.28 1040.19 1063.23 1067.69 1049.79C1086.84 1040.42 1107.28 1019.98 1116.65 1000.84C1130.97 971.552 1129.99 993.57 1129.99 702.658V442.53L1125.64 428.594C1123.24 420.93 1118.64 409.674 1115.41 403.579C1107.41 388.473 1088.23 369.714 1072.26 361.368C1045.62 347.447 1054.73 348.183 899.548 347.408C813.027 346.975 756.438 345.976 750.332 344.77C734.428 341.628 713.326 329.92 699.773 316.717C690.641 307.82 685.199 300.2 677.472 285.481C658.705 249.736 630.431 226.681 596.633 219.561C585.684 217.255 557.581 216.855 419.159 217.039C328.703 217.16 250.3 217.98 244.931 218.86ZM423.414 480.555C420.134 482.554 415.745 487.534 413.658 491.621C409.91 498.968 409.867 501.361 409.867 705.079V911.104L414.095 919.097C421.785 933.638 424.182 934.172 478.991 933.577L526.744 933.057L533.396 926.606C537.056 923.059 540.906 917.206 541.951 913.599C543.211 909.255 543.664 837.77 543.296 701.729C542.772 508.19 542.549 496.062 539.397 490.293C537.559 486.926 533.378 482.539 530.105 480.545C524.616 477.197 520.498 476.917 476.768 476.917C432.998 476.917 428.924 477.195 423.414 480.555ZM700.732 479.899C687.835 484 682.311 488.44 677.329 498.706C673.343 506.926 673.027 509.966 672.93 541.087L672.826 574.61L738.564 639.56L804.301 704.51L737.875 769.968L671.451 835.423L672.26 864.731C673.008 891.916 673.421 894.727 677.968 903.556C693.289 933.304 730.607 942.949 758.103 924.268C767.271 918.04 959.38 726.896 963.868 719.538C968.014 712.743 968.432 700.337 964.801 691.914C963.318 688.475 925.228 649.183 875.134 599.415C769.984 494.949 762.459 487.807 751.807 482.353C740.867 476.755 714.591 475.492 700.732 479.899Z" fill="#FB3F01"/>
</svg>
